<svg width="153" height="49" viewBox="0 0 153 49" fill="none" xmlns="http://www.w3.org/2000/svg">
<path d="M5.31102 5.50204H0V41.4947H5.31102V5.50204Z" fill="black"/>
<path d="M24.2441 41.4947H29.5551C29.5551 41.4947 29.5551 28.7712 29.5551 23.613C29.5551 18.3402 28.0061 13.5259 21.8099 13.5259C16.7865 13.5259 14.4851 18.4548 13.6221 21.0797V13.9844H8.31104V41.4947H13.6221V25.2178C13.6221 19.2572 17.1627 17.8817 19.8182 17.8817C23.1376 17.8817 24.2441 20.6327 24.2441 24.3007C24.2441 29.3443 24.2441 41.4947 24.2441 41.4947Z" fill="black"/>
<path d="M35.6531 32.5538C35.6531 38.2851 39.4151 41.4947 44.2836 41.4947C47.6029 41.4947 48.0455 41.4947 48.0455 41.4947V35.9926C48.0455 35.9926 46.2199 35.9926 44.5048 35.9926C42.2919 35.9926 40.9642 34.3878 40.9642 32.3246C40.9642 29.9862 40.9642 20.5525 40.9642 13.5259H48.0455V9.17008H40.9642C40.9642 6.94633 40.9642 5.50204 40.9642 5.50204H35.6531C35.6531 5.50204 35.6531 6.94633 35.6531 9.17008H32.5551V13.5259H35.6531C35.6531 20.3003 35.6531 29.3901 35.6531 32.5538Z" fill="black"/>
<path d="M73.8386 36.2219L69.4128 33.0123C69.4128 33.0123 67.8637 36.6804 62.9953 36.6804C58.7797 36.6804 56.7549 33.8491 56.4119 28.8858H74.9451L74.934 27.9688C74.9451 27.9688 74.9451 27.5103 74.9451 27.281C74.9451 17.8817 70.5192 13.0674 62.9953 13.0674C55.4714 13.0674 51.0455 17.8817 51.0455 27.281C51.0455 36.6804 55.914 41.4947 62.9953 41.4947C71.4044 41.4947 73.8386 36.2219 73.8386 36.2219ZM62.9953 17.8817C66.9454 17.8817 68.9702 20.3576 69.4902 24.7593H56.5004C57.0204 20.3576 59.0452 17.8817 62.9953 17.8817Z" fill="black"/>
<path d="M100.517 4.12654C100.517 4.66529 100.229 4.94039 99.9194 5.07794C97.9388 1.78817 94.4977 0 89.8949 0C82.3709 0 77.9451 4.8143 77.9451 13.0674C77.9451 16.5749 78.8192 19.4177 80.3793 21.5268V27.9688V32.7831H81.2645H99.6317V34.7203L81.4857 36.9096V41.4947L100.517 39.2022V38.0559V34.6171V32.7831V27.9688H99.6317H81.2645V22.5814C83.3667 24.7593 86.3542 25.9055 89.8949 25.9055C96.9762 25.9055 101.845 21.3205 101.845 13.0674C101.845 10.0642 101.258 7.53094 100.152 5.50206H100.738C103.394 5.50206 104.279 3.66804 104.279 0.458505C103.836 0.458505 100.517 0.458505 100.517 0.458505C100.517 0.458505 100.517 3.20953 100.517 4.12654ZM89.8949 21.0912C85.2477 21.0912 83.2561 17.8817 83.2561 13.0674C83.2561 8.25309 85.2477 4.8143 89.8949 4.8143C94.542 4.8143 96.5336 8.25309 96.5336 13.0674C96.5336 17.8817 94.542 21.0912 89.8949 21.0912Z" fill="black"/>
<path d="M121.22 13.9843C121.22 13.9843 120.114 13.9843 119.45 13.9843C115.079 13.9843 113.298 18.4662 112.59 21.5153V13.9843H107.279V41.4947H112.59V24.9885C112.59 20.4034 113.918 18.7987 118.565 18.7987C119.45 18.7987 121.22 18.7987 121.22 18.7987V13.9843Z" fill="black"/>
<path d="M135.728 13.5258C131.523 13.5258 131.302 13.5258 131.302 13.5258V18.3402C131.302 18.3402 132.851 18.3402 135.064 18.3402C137.719 18.3402 139.268 20.4034 139.268 22.9252C139.268 23.1545 139.268 23.4754 139.268 23.8422C138.538 23.8422 137.409 23.8422 136.834 23.8422C130.638 23.8422 124.22 26.7423 124.22 34.6171C124.22 38.2851 126.876 41.4947 131.08 41.4947C135.982 41.4947 138.228 36.6804 139.268 32.2558C139.268 36.7262 139.268 41.0362 139.268 41.0362H144.579C144.579 41.0362 144.579 26.364 144.579 22.696C144.579 17.4231 141.039 13.5258 135.728 13.5258ZM132.851 36.9096C130.638 36.9096 129.31 35.3049 129.31 33.2416C129.31 29.8028 132.629 27.9688 137.277 27.9688C137.808 27.9688 138.671 27.9688 139.268 27.9688C139.268 29.5735 137.719 36.9096 132.851 36.9096Z" fill="black"/>
<path d="M152.89 5.50204H147.579V41.4947H152.89V5.50204Z" fill="black"/>
<path d="M2.50061 43.0995C2.81041 42.9161 3.17554 42.8244 3.57387 42.8244C4.21562 42.8244 4.75779 43.088 5.20037 43.6038L6.16299 42.6868C5.85318 42.3085 5.47699 42.0105 5.02334 41.8042C4.56969 41.5979 4.06071 41.4947 3.50748 41.4947C2.84361 41.4947 2.24612 41.6437 1.71502 41.9417C1.18391 42.2398 0.76346 42.6524 0.45365 43.1797C0.143841 43.707 0 44.303 0 44.9679C0 45.6327 0.154905 46.2288 0.45365 46.7561C0.76346 47.2833 1.17285 47.696 1.71502 47.994C2.24612 48.2921 2.84361 48.4411 3.49642 48.4411C4.06072 48.4411 4.56969 48.3379 5.02334 48.1316C5.47699 47.9253 5.86425 47.6272 6.16299 47.2375L5.20037 46.3205C4.75779 46.8478 4.22668 47.1114 3.57387 47.1114C3.17554 47.1114 2.82148 47.0197 2.50061 46.8363C2.1908 46.6529 1.94737 46.4007 1.77034 46.0798C1.59331 45.7588 1.50479 45.3805 1.50479 44.9679C1.50479 44.5552 1.59331 44.1884 1.77034 43.856C1.94737 43.535 2.1908 43.2829 2.50061 43.0995Z" fill="black"/>
<path d="M14.5072 41.9647C13.9761 41.6667 13.3675 41.5176 12.6926 41.5176C12.0176 41.5176 11.4201 41.6667 10.878 41.9647C10.3358 42.2627 9.91536 42.6754 9.61661 43.2026C9.31787 43.7299 9.16296 44.326 9.16296 44.9793C9.16296 45.6327 9.31787 46.2288 9.61661 46.756C9.91536 47.2833 10.3469 47.696 10.878 47.994C11.4201 48.292 12.0176 48.441 12.6926 48.441C13.3675 48.441 13.965 48.292 14.5072 47.994C15.0383 47.696 15.4698 47.2833 15.7685 46.756C16.0784 46.2288 16.2333 45.6327 16.2333 44.9793C16.2333 44.326 16.0784 43.7299 15.7685 43.2026C15.4587 42.6754 15.0383 42.2627 14.5072 41.9647ZM14.4518 46.0912C14.2748 46.4122 14.0314 46.6643 13.7216 46.8477C13.4118 47.0311 13.0688 47.1228 12.6926 47.1228C12.3053 47.1228 11.9623 47.0311 11.6636 46.8477C11.3538 46.6643 11.1103 46.4122 10.9333 46.0912C10.7563 45.7703 10.6678 45.392 10.6678 44.9793C10.6678 44.5667 10.7563 44.1999 10.9333 43.8675C11.1103 43.5465 11.3538 43.2943 11.6636 43.1109C11.9734 42.9275 12.3164 42.8358 12.6926 42.8358C13.0688 42.8358 13.4228 42.9275 13.7216 43.1109C14.0314 43.2943 14.2748 43.5465 14.4518 43.8675C14.6289 44.1884 14.7174 44.5667 14.7174 44.9793C14.7174 45.392 14.6289 45.7588 14.4518 46.0912Z" fill="black"/>
<path d="M23.6813 45.8047L20.4725 41.7469H19.2333V48.4411H20.7049V44.3718L23.9357 48.4411H25.1639V41.7469H23.6813V45.8047Z" fill="black"/>
<path d="M32.3906 44.7272C32.0808 44.6011 31.6714 44.4865 31.1846 44.3604C30.7088 44.2572 30.3547 44.1426 30.1224 44.0279C29.89 43.9133 29.7794 43.7414 29.7794 43.5121C29.7794 43.2829 29.879 43.0995 30.0781 42.9619C30.2773 42.8244 30.5871 42.7556 31.0075 42.7556C31.605 42.7556 32.2025 42.9275 32.8 43.2829L33.2647 42.1022C32.966 41.9074 32.623 41.7698 32.2357 41.6667C31.8374 41.5635 31.4391 41.5176 31.0297 41.5176C30.4433 41.5176 29.9343 41.6093 29.5249 41.7927C29.1155 41.9761 28.8057 42.2283 28.6065 42.5493C28.4074 42.8702 28.2967 43.2141 28.2967 43.6038C28.2967 44.0509 28.4074 44.4062 28.6287 44.6699C28.8499 44.9335 29.1266 45.1284 29.4364 45.2544C29.7462 45.3805 30.1556 45.4952 30.6424 45.6213C30.9633 45.7015 31.2178 45.7703 31.4059 45.8276C31.594 45.8964 31.7489 45.9766 31.8706 46.0798C31.9923 46.1829 32.0476 46.3205 32.0476 46.4809C32.0476 46.6987 31.948 46.8707 31.7378 46.9968C31.5386 47.1229 31.2178 47.1916 30.7973 47.1916C30.4101 47.1916 30.0339 47.1229 29.6577 46.9968C29.2704 46.8707 28.9495 46.6987 28.6729 46.4924L28.1639 47.6616C28.4516 47.8908 28.8389 48.0742 29.3147 48.2233C29.7904 48.3723 30.2883 48.441 30.7973 48.441C31.3837 48.441 31.8927 48.3493 32.3021 48.1659C32.7115 47.9825 33.0213 47.7304 33.2315 47.4094C33.4418 47.0885 33.5413 46.7446 33.5413 46.3663C33.5413 45.9193 33.4307 45.5639 33.2094 45.3003C32.977 45.0367 32.7004 44.8533 32.3906 44.7272Z" fill="black"/>
<path d="M40.9119 45.3233C40.9119 45.9422 40.7902 46.4007 40.5468 46.6873C40.3033 46.9739 39.9382 47.1229 39.4735 47.1229C38.5109 47.1229 38.0351 46.5268 38.0351 45.3233V41.6323H36.5414V45.3806C36.5414 46.3663 36.7959 47.1229 37.3159 47.6501C37.8249 48.1774 38.5441 48.4411 39.4735 48.4411C40.4029 48.4411 41.1111 48.1774 41.6311 47.6501C42.1401 47.1229 42.4056 46.3663 42.4056 45.3806V41.6323H40.923V45.3233H40.9119Z" fill="black"/>
<path d="M46.8992 41.7469H45.4055V48.4411H50.1412V47.1802H46.8992V41.7469Z" fill="black"/>
<path d="M53.1412 43.0078H55.2103V48.4411H56.704V43.0078H58.7731V41.7469H53.1412V43.0078Z" fill="black"/>
<path d="M63.2668 41.7469H61.7731V48.4411H63.2668V41.7469Z" fill="black"/>
<path d="M70.7259 45.8047L67.5061 41.7469H66.2668V48.4411H67.7495V44.3718L70.9693 48.4411H72.1975V41.7469H70.7259V45.8047Z" fill="black"/>
<path d="M77.7203 43.0766C78.0411 42.8932 78.4063 42.8129 78.8156 42.8129C79.4685 42.8129 80.0217 43.0651 80.4864 43.5695L81.449 42.6525C81.1392 42.2742 80.752 41.9876 80.2872 41.7928C79.8225 41.5979 79.3136 41.4948 78.7493 41.4948C78.0743 41.4948 77.4658 41.6438 76.9236 41.9418C76.3814 42.2398 75.961 42.6525 75.6512 43.1797C75.3413 43.707 75.1975 44.3031 75.1975 44.9679C75.1975 45.6327 75.3524 46.2288 75.6512 46.7561C75.961 47.2833 76.3814 47.696 76.9125 47.994C77.4436 48.292 78.0522 48.4411 78.7271 48.4411C79.1919 48.4411 79.6566 48.3723 80.1213 48.2233C80.586 48.0743 80.9843 47.8679 81.3384 47.5928V44.8762H79.9664V46.8134C79.6234 47.0082 79.2361 47.0999 78.8046 47.0999C78.3952 47.0999 78.0411 47.0082 77.7203 46.8248C77.3994 46.6414 77.1559 46.3893 76.9789 46.0683C76.8019 45.7474 76.7134 45.3691 76.7134 44.9564C76.7134 44.5323 76.8019 44.1655 76.9789 43.8331C77.1449 43.5122 77.3994 43.26 77.7203 43.0766Z" fill="black"/>
</svg>
